<svg width="155" height="46" viewBox="0 0 155 46" fill="none" xmlns="http://www.w3.org/2000/svg">
<path d="M29.816 3.392V20H27.632V7.616L22.112 20H20.576L15.032 7.592V20H12.848V3.392H15.2L21.344 17.12L27.488 3.392H29.816ZM32.7039 13.376C32.7039 12.032 32.9759 10.856 33.5199 9.848C34.0639 8.824 34.8079 8.032 35.7519 7.472C36.7119 6.912 37.7759 6.632 38.9439 6.632C40.0959 6.632 41.0959 6.88 41.9439 7.376C42.7919 7.872 43.4239 8.496 43.8399 9.248V6.848H46.0479V20H43.8399V17.552C43.4079 18.32 42.7599 18.96 41.8959 19.472C41.0479 19.968 40.0559 20.216 38.9199 20.216C37.7519 20.216 36.6959 19.928 35.7519 19.352C34.8079 18.776 34.0639 17.968 33.5199 16.928C32.9759 15.888 32.7039 14.704 32.7039 13.376ZM43.8399 13.4C43.8399 12.408 43.6399 11.544 43.2399 10.808C42.8399 10.072 42.2959 9.512 41.6079 9.128C40.9359 8.728 40.1919 8.528 39.3759 8.528C38.5599 8.528 37.8159 8.72 37.1439 9.104C36.4719 9.488 35.9359 10.048 35.5359 10.784C35.1359 11.52 34.9359 12.384 34.9359 13.376C34.9359 14.384 35.1359 15.264 35.5359 16.016C35.9359 16.752 36.4719 17.32 37.1439 17.72C37.8159 18.104 38.5599 18.296 39.3759 18.296C40.1919 18.296 40.9359 18.104 41.6079 17.72C42.2959 17.32 42.8399 16.752 43.2399 16.016C43.6399 15.264 43.8399 14.392 43.8399 13.4ZM52.4026 8.648V16.4C52.4026 17.04 52.5386 17.496 52.8106 17.768C53.0826 18.024 53.5546 18.152 54.2266 18.152H55.8346V20H53.8666C52.6506 20 51.7386 19.72 51.1306 19.16C50.5226 18.6 50.2186 17.68 50.2186 16.4V8.648H48.5146V6.848H50.2186V3.536H52.4026V6.848H55.8346V8.648H52.4026ZM65.0088 6.608C66.0008 6.608 66.8968 6.824 67.6968 7.256C68.4968 7.672 69.1208 8.304 69.5688 9.152C70.0328 10 70.2648 11.032 70.2648 12.248V20H68.1048V12.56C68.1048 11.248 67.7768 10.248 67.1208 9.56C66.4648 8.856 65.5688 8.504 64.4328 8.504C63.2808 8.504 62.3608 8.864 61.6728 9.584C61.0008 10.304 60.6648 11.352 60.6648 12.728V20H58.4808V2.24H60.6648V8.72C61.0968 8.048 61.6888 7.528 62.4408 7.16C63.2088 6.792 64.0648 6.608 65.0088 6.608ZM85.8324 12.92C85.8324 13.336 85.8084 13.776 85.7604 14.24H75.2484C75.3284 15.536 75.7684 16.552 76.5684 17.288C77.3844 18.008 78.3684 18.368 79.5204 18.368C80.4644 18.368 81.2484 18.152 81.8724 17.72C82.5124 17.272 82.9604 16.68 83.2164 15.944H85.5684C85.2164 17.208 84.5124 18.24 83.4564 19.04C82.4004 19.824 81.0884 20.216 79.5204 20.216C78.2724 20.216 77.1524 19.936 76.1604 19.376C75.1844 18.816 74.4164 18.024 73.8564 17C73.2964 15.96 73.0164 14.76 73.0164 13.4C73.0164 12.04 73.2884 10.848 73.8324 9.824C74.3764 8.8 75.1364 8.016 76.1124 7.472C77.1044 6.912 78.2404 6.632 79.5204 6.632C80.7684 6.632 81.8724 6.904 82.8324 7.448C83.7924 7.992 84.5284 8.744 85.0404 9.704C85.5684 10.648 85.8324 11.72 85.8324 12.92ZM83.5764 12.464C83.5764 11.632 83.3924 10.92 83.0244 10.328C82.6564 9.72 82.1524 9.264 81.5124 8.96C80.8884 8.64 80.1924 8.48 79.4244 8.48C78.3204 8.48 77.3764 8.832 76.5924 9.536C75.8244 10.24 75.3844 11.216 75.2724 12.464H83.5764ZM100.379 6.848V20H98.1952V18.056C97.7792 18.728 97.1952 19.256 96.4432 19.64C95.7072 20.008 94.8912 20.192 93.9952 20.192C92.9712 20.192 92.0512 19.984 91.2352 19.568C90.4192 19.136 89.7712 18.496 89.2912 17.648C88.8272 16.8 88.5952 15.768 88.5952 14.552V6.848H90.7552V14.264C90.7552 15.56 91.0832 16.56 91.7392 17.264C92.3952 17.952 93.2912 18.296 94.4272 18.296C95.5952 18.296 96.5152 17.936 97.1872 17.216C97.8592 16.496 98.1952 15.448 98.1952 14.072V6.848H100.379ZM108.723 20.216C107.715 20.216 106.811 20.048 106.011 19.712C105.211 19.36 104.579 18.88 104.115 18.272C103.651 17.648 103.395 16.936 103.347 16.136H105.603C105.667 16.792 105.971 17.328 106.515 17.744C107.075 18.16 107.803 18.368 108.699 18.368C109.531 18.368 110.187 18.184 110.667 17.816C111.147 17.448 111.387 16.984 111.387 16.424C111.387 15.848 111.131 15.424 110.619 15.152C110.107 14.864 109.315 14.584 108.243 14.312C107.267 14.056 106.467 13.8 105.843 13.544C105.235 13.272 104.707 12.88 104.259 12.368C103.827 11.84 103.611 11.152 103.611 10.304C103.611 9.632 103.811 9.016 104.211 8.456C104.611 7.896 105.179 7.456 105.915 7.136C106.651 6.8 107.491 6.632 108.435 6.632C109.891 6.632 111.067 7 111.963 7.736C112.859 8.472 113.339 9.48 113.403 10.76H111.219C111.171 10.072 110.891 9.52 110.379 9.104C109.883 8.688 109.211 8.48 108.363 8.48C107.579 8.48 106.955 8.648 106.491 8.984C106.027 9.32 105.795 9.76 105.795 10.304C105.795 10.736 105.931 11.096 106.203 11.384C106.491 11.656 106.843 11.88 107.259 12.056C107.691 12.216 108.283 12.4 109.035 12.608C109.979 12.864 110.747 13.12 111.339 13.376C111.931 13.616 112.435 13.984 112.851 14.48C113.283 14.976 113.507 15.624 113.523 16.424C113.523 17.144 113.323 17.792 112.923 18.368C112.523 18.944 111.955 19.4 111.219 19.736C110.499 20.056 109.667 20.216 108.723 20.216ZM18.152 41.168C17.048 41.168 16.056 40.976 15.176 40.592C14.312 40.192 13.632 39.648 13.136 38.96C12.64 38.256 12.384 37.448 12.368 36.536H14.696C14.776 37.32 15.096 37.984 15.656 38.528C16.232 39.056 17.064 39.32 18.152 39.32C19.192 39.32 20.008 39.064 20.6 38.552C21.208 38.024 21.512 37.352 21.512 36.536C21.512 35.896 21.336 35.376 20.984 34.976C20.632 34.576 20.192 34.272 19.664 34.064C19.136 33.856 18.424 33.632 17.528 33.392C16.424 33.104 15.536 32.816 14.864 32.528C14.208 32.24 13.64 31.792 13.16 31.184C12.696 30.56 12.464 29.728 12.464 28.688C12.464 27.776 12.696 26.968 13.16 26.264C13.624 25.56 14.272 25.016 15.104 24.632C15.952 24.248 16.92 24.056 18.008 24.056C19.576 24.056 20.856 24.448 21.848 25.232C22.856 26.016 23.424 27.056 23.552 28.352H21.152C21.072 27.712 20.736 27.152 20.144 26.672C19.552 26.176 18.768 25.928 17.792 25.928C16.88 25.928 16.136 26.168 15.56 26.648C14.984 27.112 14.696 27.768 14.696 28.616C14.696 29.224 14.864 29.72 15.2 30.104C15.552 30.488 15.976 30.784 16.472 30.992C16.984 31.184 17.696 31.408 18.608 31.664C19.712 31.968 20.6 32.272 21.272 32.576C21.944 32.864 22.52 33.32 23 33.944C23.48 34.552 23.72 35.384 23.72 36.44C23.72 37.256 23.504 38.024 23.072 38.744C22.64 39.464 22 40.048 21.152 40.496C20.304 40.944 19.304 41.168 18.152 41.168ZM26.1179 34.376C26.1179 33.032 26.3899 31.856 26.9339 30.848C27.4779 29.824 28.2219 29.032 29.1659 28.472C30.1259 27.912 31.1899 27.632 32.3579 27.632C33.5099 27.632 34.5099 27.88 35.3579 28.376C36.2059 28.872 36.8379 29.496 37.2539 30.248V27.848H39.4619V41H37.2539V38.552C36.8219 39.32 36.1739 39.96 35.3099 40.472C34.4619 40.968 33.4699 41.216 32.3339 41.216C31.1659 41.216 30.1099 40.928 29.1659 40.352C28.2219 39.776 27.4779 38.968 26.9339 37.928C26.3899 36.888 26.1179 35.704 26.1179 34.376ZM37.2539 34.4C37.2539 33.408 37.0539 32.544 36.6539 31.808C36.2539 31.072 35.7099 30.512 35.0219 30.128C34.3499 29.728 33.6059 29.528 32.7899 29.528C31.9739 29.528 31.2299 29.72 30.5579 30.104C29.8859 30.488 29.3499 31.048 28.9499 31.784C28.5499 32.52 28.3499 33.384 28.3499 34.376C28.3499 35.384 28.5499 36.264 28.9499 37.016C29.3499 37.752 29.8859 38.32 30.5579 38.72C31.2299 39.104 31.9739 39.296 32.7899 39.296C33.6059 39.296 34.3499 39.104 35.0219 38.72C35.7099 38.32 36.2539 37.752 36.6539 37.016C37.0539 36.264 37.2539 35.392 37.2539 34.4ZM49.5607 27.608C51.1607 27.608 52.4567 28.096 53.4487 29.072C54.4407 30.032 54.9367 31.424 54.9367 33.248V41H52.7767V33.56C52.7767 32.248 52.4487 31.248 51.7927 30.56C51.1367 29.856 50.2407 29.504 49.1047 29.504C47.9527 29.504 47.0327 29.864 46.3447 30.584C45.6727 31.304 45.3367 32.352 45.3367 33.728V41H43.1527V27.848H45.3367V29.72C45.7687 29.048 46.3527 28.528 47.0887 28.16C47.8407 27.792 48.6647 27.608 49.5607 27.608ZM57.6883 34.376C57.6883 33.032 57.9603 31.856 58.5043 30.848C59.0483 29.824 59.7923 29.032 60.7363 28.472C61.6963 27.912 62.7603 27.632 63.9283 27.632C65.0803 27.632 66.0803 27.88 66.9283 28.376C67.7763 28.872 68.4083 29.496 68.8243 30.248V27.848H71.0323V41H68.8243V38.552C68.3923 39.32 67.7443 39.96 66.8803 40.472C66.0323 40.968 65.0403 41.216 63.9043 41.216C62.7363 41.216 61.6803 40.928 60.7363 40.352C59.7923 39.776 59.0483 38.968 58.5043 37.928C57.9603 36.888 57.6883 35.704 57.6883 34.376ZM68.8243 34.4C68.8243 33.408 68.6243 32.544 68.2243 31.808C67.8243 31.072 67.2803 30.512 66.5923 30.128C65.9203 29.728 65.1763 29.528 64.3603 29.528C63.5443 29.528 62.8003 29.72 62.1283 30.104C61.4563 30.488 60.9203 31.048 60.5203 31.784C60.1203 32.52 59.9203 33.384 59.9203 34.376C59.9203 35.384 60.1203 36.264 60.5203 37.016C60.9203 37.752 61.4563 38.32 62.1283 38.72C62.8003 39.104 63.5443 39.296 64.3603 39.296C65.1763 39.296 65.9203 39.104 66.5923 38.72C67.2803 38.32 67.8243 37.752 68.2243 37.016C68.6243 36.264 68.8243 35.392 68.8243 34.4ZM73.907 34.376C73.907 33.032 74.179 31.856 74.723 30.848C75.267 29.824 76.011 29.032 76.955 28.472C77.915 27.912 78.987 27.632 80.171 27.632C81.195 27.632 82.147 27.872 83.027 28.352C83.907 28.816 84.579 29.432 85.043 30.2V23.24H87.251V41H85.043V38.528C84.611 39.312 83.971 39.96 83.123 40.472C82.275 40.968 81.283 41.216 80.147 41.216C78.979 41.216 77.915 40.928 76.955 40.352C76.011 39.776 75.267 38.968 74.723 37.928C74.179 36.888 73.907 35.704 73.907 34.376ZM85.043 34.4C85.043 33.408 84.843 32.544 84.443 31.808C84.043 31.072 83.499 30.512 82.811 30.128C82.139 29.728 81.395 29.528 80.579 29.528C79.763 29.528 79.019 29.72 78.347 30.104C77.675 30.488 77.139 31.048 76.739 31.784C76.339 32.52 76.139 33.384 76.139 34.376C76.139 35.384 76.339 36.264 76.739 37.016C77.139 37.752 77.675 38.32 78.347 38.72C79.019 39.104 79.763 39.296 80.579 39.296C81.395 39.296 82.139 39.104 82.811 38.72C83.499 38.32 84.043 37.752 84.443 37.016C84.843 36.264 85.043 35.392 85.043 34.4ZM90.1258 34.376C90.1258 33.032 90.3978 31.856 90.9418 30.848C91.4858 29.824 92.2298 29.032 93.1738 28.472C94.1338 27.912 95.1978 27.632 96.3658 27.632C97.5178 27.632 98.5178 27.88 99.3658 28.376C100.214 28.872 100.846 29.496 101.262 30.248V27.848H103.47V41H101.262V38.552C100.83 39.32 100.182 39.96 99.3178 40.472C98.4698 40.968 97.4778 41.216 96.3418 41.216C95.1738 41.216 94.1178 40.928 93.1738 40.352C92.2298 39.776 91.4858 38.968 90.9418 37.928C90.3978 36.888 90.1258 35.704 90.1258 34.376ZM101.262 34.4C101.262 33.408 101.062 32.544 100.662 31.808C100.262 31.072 99.7178 30.512 99.0298 30.128C98.3578 29.728 97.6138 29.528 96.7978 29.528C95.9818 29.528 95.2378 29.72 94.5658 30.104C93.8938 30.488 93.3578 31.048 92.9578 31.784C92.5578 32.52 92.3578 33.384 92.3578 34.376C92.3578 35.384 92.5578 36.264 92.9578 37.016C93.3578 37.752 93.8938 38.32 94.5658 38.72C95.2378 39.104 95.9818 39.296 96.7978 39.296C97.6138 39.296 98.3578 39.104 99.0298 38.72C99.7178 38.32 100.262 37.752 100.662 37.016C101.062 36.264 101.262 35.392 101.262 34.4Z" fill="white"/>
<line x1="2" x2="2" y2="46" stroke="#5280E2" stroke-width="4"/>
</svg>
